<?xml version="1.0" encoding="UTF-8"?>
<svg id="ICON_ART" data-name="ICON ART" xmlns="http://www.w3.org/2000/svg" version="1.1" viewBox="0 0 512 512">
  <defs>
    <style>
      .cls-1 {
        fill: #fff;
        stroke-width: 0px;
      }
    </style>
  </defs>
  <path class="cls-1" d="M474.059,425.013h-.023c-3.313-.013-5.989-2.709-5.977-6.023l.148-38.457c.035-9.067-3.463-17.605-9.85-24.041-6.387-6.437-14.897-10.001-23.965-10.036h-.133c-18.658,0-33.872,15.141-33.944,33.815l-.107,38.458c-.009,3.308-2.694,5.983-6,5.983h-.017c-3.313-.01-5.992-2.703-5.983-6.017l.107-38.465c.099-25.281,20.692-45.775,45.944-45.775h.18c12.272.048,23.792,4.872,32.437,13.583,8.645,8.712,13.379,20.269,13.331,32.541l-.148,38.457c-.013,3.306-2.696,5.977-6,5.977Z"/>
  <path class="cls-1" d="M486.077,503.463h-.023l-104.536-.404c-3.313-.013-5.989-2.71-5.977-6.023l.303-78.403c.006-1.591.645-3.114,1.773-4.235,1.124-1.115,2.644-1.741,4.227-1.741h.023l104.537.405c3.313.013,5.989,2.71,5.977,6.023l-.304,78.402c-.013,3.306-2.697,5.977-6,5.977ZM387.564,491.082l92.536.357.257-66.402-92.537-.358-.256,66.403Z"/>
  <path class="cls-1" d="M434.74,463.37c-1.58,0-3.12-.641-4.24-1.761-.28-.27-.53-.579-.75-.909-.21-.33-.4-.67-.55-1.04-.15-.36-.261-.74-.341-1.12-.079-.391-.119-.78-.119-1.17s.04-.79.119-1.17c.08-.391.19-.761.341-1.12.149-.37.34-.721.55-1.04.22-.33.47-.641.75-.91,1.39-1.4,3.47-2.04,5.41-1.64.39.069.76.189,1.13.34.359.149.71.33,1.029.55.33.22.641.47.91.75.28.27.53.58.75.91.221.319.4.67.551,1.04.149.359.27.729.34,1.12.08.38.12.779.12,1.17s-.04.779-.12,1.17c-.07.38-.19.76-.34,1.12-.15.37-.33.71-.551,1.04-.22.33-.47.64-.75.909-.27.28-.58.53-.91.75-.319.21-.67.4-1.029.551-.37.149-.74.27-1.13.34-.38.08-.78.12-1.17.12Z"/>
  <g>
    <path class="cls-1" d="M256.035,512c-.337,0-.675,0-1.012-.002-68.36-.265-132.541-27.147-180.719-75.697C26.125,387.75-.263,323.366.002,255.01.267,186.648,27.152,122.469,75.705,74.295,124.013,26.363,188.007,0,255.986,0c.342,0,.676,0,1.018.002,141.15.546,255.54,115.832,254.994,256.989-.095,24.672-3.697,49.06-10.708,72.484-.949,3.176-4.291,4.982-7.468,4.028-3.175-.95-4.979-4.294-4.028-7.468,6.681-22.323,10.113-45.569,10.204-69.091.521-134.542-108.507-244.423-243.04-244.943-65.132-.214-126.524,24.896-172.801,70.811C37.879,128.73,12.254,189.9,12.002,255.056c-.252,65.152,24.898,126.517,70.819,172.792,45.92,46.274,107.093,71.898,172.248,72.15,27.7.104,54.983-4.409,80.952-13.428,3.132-1.091,6.55.569,7.636,3.7,1.087,3.13-.569,6.549-3.7,7.636-26.937,9.354-55.166,14.094-83.921,14.094Z"/>
    <path class="cls-1" d="M255.355,511.999c-.114,0-.225,0-.339,0-40.393-.156-78.01-27.387-105.924-76.674-27.313-48.229-42.211-112.118-41.949-179.9.262-67.786,15.654-131.56,43.34-179.574C178.695,26.926,216.389.001,256.649.001c.118,0,.231,0,.35,0,40.39.156,78.005,27.385,105.915,76.671,27.31,48.226,42.206,112.117,41.943,179.903-.043,11.067-.498,22.199-1.354,33.087-.259,3.304-3.151,5.773-6.451,5.512-3.304-.26-5.771-3.147-5.512-6.451.832-10.592,1.274-21.423,1.316-32.194.255-65.731-14.088-127.506-40.385-173.944-25.697-45.378-59.62-70.445-95.52-70.584-.099,0-.201,0-.3,0-35.794,0-69.793,24.79-95.772,69.843-26.659,46.233-41.481,107.895-41.736,173.626-.254,65.727,14.09,127.5,40.391,173.939,25.701,45.38,59.626,70.449,95.528,70.588.095,0,.194,0,.29,0,22.956,0,45.745-10.496,65.928-30.369,2.361-2.323,6.161-2.296,8.485.065,2.325,2.361,2.296,6.16-.065,8.485-22.476,22.129-48.178,33.818-74.346,33.818Z"/>
    <path class="cls-1" d="M255.033,511.998h-.024c-3.313-.013-5.989-2.71-5.977-6.023l1.936-499.996c.013-3.306,2.697-5.977,6-5.977h.024c3.313.013,5.989,2.709,5.977,6.023l-1.936,499.996c-.013,3.306-2.697,5.977-6,5.977Z"/>
    <path class="cls-1" d="M505.999,262.968h-.024l-499.996-1.936c-3.313-.013-5.989-2.71-5.977-6.023.013-3.305,2.697-5.977,6-5.977h.024l499.996,1.936c3.313.013,5.989,2.709,5.977,6.023-.013,3.306-2.697,5.977-5.999,5.977Z"/>
    <path class="cls-1" d="M456.553,119.918h-.024l-399.997-1.548c-3.313-.013-5.989-2.709-5.977-6.023.013-3.305,2.697-5.977,6-5.977h.024l399.997,1.548c3.313.013,5.989,2.709,5.977,6.023-.013,3.305-2.697,5.977-5.999,5.977Z"/>
    <path class="cls-1" d="M318.843,405.102h-.024l-263.393-1.02c-3.313-.013-5.989-2.71-5.977-6.023.013-3.306,2.697-5.977,6-5.977h.024l263.393,1.02c3.313.013,5.989,2.71,5.977,6.023-.013,3.306-2.697,5.977-5.999,5.977Z"/>
  </g>
</svg>