<?xml version="1.0" encoding="UTF-8"?>
<svg id="ICON_ART" data-name="ICON ART" xmlns="http://www.w3.org/2000/svg" version="1.1" viewBox="0 0 512 512">
  <defs>
    <style>
      .cls-1 {
        fill: #231f20;
      }

      .cls-1, .cls-2 {
        stroke-width: 0px;
      }

      .cls-2 {
        fill: #d71920;
      }
    </style>
  </defs>
  <path class="cls-2" d="M394.837,424.176c-3.312,0-5.996-2.682-6-5.993l-.041-38.466c0-25.341,20.611-45.952,45.945-45.952s45.946,20.611,45.946,45.945v38.457c0,3.313-2.687,6-6,6s-6-2.687-6-6v-38.457c0-18.718-15.229-33.945-33.946-33.945s-33.945,15.228-33.945,33.945l.041,38.459c.004,3.314-2.68,6.003-5.993,6.007h-.007Z"/>
  <path class="cls-2" d="M487.011,502.57h-104.538c-3.313,0-6-2.687-6-6v-78.403c0-3.313,2.687-6,6-6h104.538c3.313,0,6,2.687,6,6v78.403c0,3.313-2.687,6-6,6ZM388.473,490.57h92.538v-66.403h-92.538v66.403Z"/>
  <path class="cls-2" d="M434.74,463.37c-1.58,0-3.12-.641-4.24-1.761-.28-.27-.53-.579-.75-.909-.21-.33-.4-.67-.55-1.04-.15-.36-.261-.74-.341-1.12-.079-.391-.119-.78-.119-1.17s.04-.79.119-1.17c.08-.391.19-.761.341-1.12.149-.37.34-.721.55-1.04.22-.33.47-.641.75-.91,1.39-1.4,3.47-2.04,5.41-1.64.39.069.76.189,1.13.34.359.149.71.33,1.029.55.33.22.641.47.91.75.28.27.53.58.75.91.221.319.4.67.551,1.04.149.359.27.729.34,1.12.08.38.12.779.12,1.17s-.04.779-.12,1.17c-.07.38-.19.76-.34,1.12-.15.37-.33.71-.551,1.04-.22.33-.47.64-.75.909-.27.28-.58.53-.91.75-.319.21-.67.4-1.029.551-.37.149-.74.27-1.13.34-.38.08-.78.12-1.17.12Z"/>
  <g>
    <path class="cls-1" d="M256.013,512C114.847,512,0,397.159,0,256S114.847,0,256.013,0s255.987,114.841,255.987,256c0,24.672-3.509,49.074-10.428,72.526-.938,3.178-4.271,4.993-7.453,4.057-3.178-.938-4.994-4.274-4.057-7.453,6.594-22.349,9.938-45.606,9.938-69.129,0-134.542-109.452-244-243.987-244S12,121.458,12,256s109.464,244,244.013,244c27.745,0,54.963-4.623,80.899-13.741,3.126-1.1,6.552.544,7.65,3.67,1.1,3.126-.544,6.552-3.67,7.65-27.218,9.569-55.775,14.421-84.879,14.421Z"/>
    <path class="cls-1" d="M256.007,512c-40.393,0-78.115-27.084-106.219-76.264-27.5-48.122-42.645-111.953-42.645-179.736s15.145-131.62,42.645-179.741C177.891,27.083,215.614,0,256.007,0s78.111,27.083,106.21,76.26c27.497,48.12,42.64,111.953,42.64,179.74,0,11.062-.412,22.196-1.225,33.091-.246,3.305-3.126,5.79-6.43,5.537-3.305-.246-5.783-3.125-5.537-6.43.791-10.6,1.191-21.433,1.191-32.199,0-65.732-14.581-127.451-41.059-173.787-25.872-45.278-59.892-70.213-95.792-70.213s-69.925,24.936-95.801,70.214c-26.48,46.337-41.063,108.055-41.063,173.787s14.583,127.444,41.063,173.782c25.876,45.281,59.899,70.218,95.801,70.218,23.051,0,45.909-10.59,66.101-30.624,2.353-2.335,6.151-2.319,8.484.033,2.334,2.352,2.319,6.151-.033,8.484-22.487,22.312-48.268,34.106-74.552,34.106Z"/>
    <path class="cls-1" d="M256,512c-3.313,0-6-2.687-6-6V6C250,2.687,252.687,0,256,0s6,2.687,6,6v500c0,3.313-2.687,6-6,6Z"/>
    <path class="cls-1" d="M506,262H6c-3.313,0-6-2.687-6-6s2.687-6,6-6h500c3.313,0,6,2.687,6,6s-2.687,6-6,6Z"/>
    <path class="cls-1" d="M456,119.143H56c-3.314,0-6-2.686-6-6s2.686-6,6-6h400c3.313,0,6,2.686,6,6s-2.687,6-6,6Z"/>
    <path class="cls-1" d="M319.395,404.856H56c-3.313,0-6-2.687-6-6s2.687-6,6-6h263.395c3.313,0,6,2.687,6,6s-2.687,6-6,6Z"/>
  </g>
</svg>